static_grf.mot
version=1
nRows=25
nColumns 19
inDegrees=yes
endheader
time	1_ground_force_vx	1_ground_force_vy	1_ground_force_vz	1_ground_force_px	1_ground_force_py	1_ground_force_pz	1_ground_torque_x	1_ground_torque_y	1_ground_torque_z	2_ground_force_vx	2_ground_force_vy	2_ground_force_vz	2_ground_force_px	2_ground_force_py	2_ground_force_pz	2_ground_torque_x	2_ground_torque_y	2_ground_torque_z
            0.005000	            4.682271	          412.083996	          -39.286887	           -0.287254	            0.006124	           -0.384482	            0.021894	            1.926847	           -0.183700	           -6.003525	          381.800750	           31.117130	           -0.253096	            0.005699	           -0.733967	           -0.003916	            0.249042	            0.020297
            0.005500	            4.545605	          411.722061	          -38.967096	           -0.287460	            0.006125	           -0.384747	            0.021094	            1.910584	           -0.180826	           -5.673623	          381.249847	           31.021164	           -0.252977	            0.005700	           -0.734018	           -0.003580	            0.240546	            0.019573
            0.006000	            4.637012	          412.623574	          -39.009319	           -0.287063	            0.006123	           -0.384195	            0.021214	            1.887703	           -0.178463	           -5.767281	          381.249174	           31.115060	           -0.253218	            0.005699	           -0.733870	           -0.003223	            0.213053	            0.017388
            0.006500	            4.499258	          411.362504	          -39.197811	           -0.287281	            0.006125	           -0.384794	            0.020890	            1.909919	           -0.181992	           -5.772578	          382.722193	           31.167244	           -0.253087	            0.005700	           -0.734057	           -0.003103	            0.205711	            0.016752
            0.007000	            4.544954	          411.542945	          -39.243005	           -0.287101	            0.006125	           -0.384877	            0.021721	            1.966859	           -0.187551	           -5.812823	          380.880890	           31.066838	           -0.253103	            0.005698	           -0.733628	           -0.004271	            0.279885	            0.022829
            0.007500	            4.819881	          412.264061	          -39.240595	           -0.287132	            0.006125	           -0.384739	            0.022231	            1.901482	           -0.180989	           -5.812179	          380.696917	           31.019252	           -0.252856	            0.005700	           -0.733775	           -0.003524	            0.230848	            0.018809
            0.008000	            4.499908	          411.541560	          -38.921903	           -0.287544	            0.006124	           -0.384572	            0.020423	            1.867792	           -0.176648	           -5.863557	          381.984729	           31.305440	           -0.252791	            0.005701	           -0.734211	           -0.003817	            0.248630	            0.020376
            0.008500	            4.590944	          411.362522	          -39.198039	           -0.287178	            0.006125	           -0.384884	            0.021406	            1.918046	           -0.182767	           -6.187581	          380.879202	           31.160853	           -0.253099	            0.005698	           -0.733578	           -0.004209	            0.259070	            0.021195
            0.009000	            4.545491	          411.722258	          -39.012956	           -0.287454	            0.006124	           -0.384477	            0.021308	            1.930076	           -0.182885	           -5.815543	          381.617955	           30.928681	           -0.252965	            0.005700	           -0.734018	           -0.004346	            0.285170	            0.023112
            0.009500	            4.408126	          410.820873	          -39.016479	           -0.287683	            0.006126	           -0.385037	            0.020546	            1.914842	           -0.181856	           -5.908537	          381.433142	           31.021920	           -0.252967	            0.005700	           -0.733969	           -0.003802	            0.245473	            0.019964
            0.010000	            4.728554	          411.542587	          -39.151748	           -0.287086	            0.006126	           -0.384957	            0.022494	            1.957774	           -0.186251	           -5.863037	          381.801760	           30.976286	           -0.252756	            0.005700	           -0.733918	           -0.004248	            0.276603	            0.022441
            0.010500	            4.637063	          411.722472	          -39.059035	           -0.287269	            0.006125	           -0.384710	            0.021410	            1.900990	           -0.180342	           -5.952749	          380.696577	           30.972384	           -0.253020	            0.005699	           -0.733926	           -0.004792	            0.306453	            0.024932
            0.011000	            4.683832	          412.261478	          -38.644131	           -0.287196	            0.006124	           -0.384588	            0.021688	            1.908910	           -0.178935	           -5.955948	          381.616276	           31.257238	           -0.252915	            0.005699	           -0.733821	           -0.004306	            0.275889	            0.022597
            0.011500	            4.591334	          411.722267	          -39.013069	           -0.287265	            0.006125	           -0.384842	            0.021626	            1.939267	           -0.183757	           -6.001510	          381.248160	           31.162087	           -0.253070	            0.005699	           -0.733772	           -0.003337	            0.211965	            0.017325
            0.012000	            4.683589	          411.721302	          -38.784014	           -0.287353	            0.006125	           -0.384772	            0.021882	            1.923560	           -0.181199	           -5.908475	          381.432639	           31.162705	           -0.252918	            0.005700	           -0.733870	           -0.003787	            0.244477	            0.019974
            0.012500	            4.637159	          412.443142	          -38.964232	           -0.287028	            0.006125	           -0.384746	            0.021937	            1.951116	           -0.184325	           -5.672876	          381.065037	           31.208219	           -0.253079	            0.005699	           -0.733871	           -0.003065	            0.205900	            0.016863
            0.013000	            4.453008	          411.723616	          -39.333716	           -0.287186	            0.006126	           -0.385014	            0.020941	            1.936211	           -0.184974	           -6.047675	          381.063683	           31.208378	           -0.252784	            0.005700	           -0.733773	           -0.003408	            0.214745	            0.017587
            0.013500	            4.454081	          412.082182	          -38.873611	           -0.287152	            0.006125	           -0.384717	            0.020532	            1.899560	           -0.179194	           -6.001654	          381.249332	           30.833591	           -0.253131	            0.005700	           -0.734168	           -0.004280	            0.271860	            0.021987
            0.014000	            4.545215	          411.362316	          -39.152066	           -0.287269	            0.006125	           -0.384742	            0.021440	            1.940423	           -0.184683	           -5.721740	          381.617457	           31.163282	           -0.253063	            0.005699	           -0.733870	           -0.004171	            0.278163	            0.022715
            0.014500	            4.132481	          411.542669	          -39.196128	           -0.287246	            0.006126	           -0.384969	            0.019343	            1.926316	           -0.183466	           -5.909181	          381.617115	           31.069505	           -0.253150	            0.005700	           -0.734163	           -0.003396	            0.219305	            0.017855
            0.015000	            4.819800	          412.084022	          -39.287228	           -0.287093	            0.006125	           -0.384799	            0.023011	            1.967388	           -0.187567	           -5.862310	          381.617117	           31.116414	           -0.252902	            0.005700	           -0.733917	           -0.003268	            0.212705	            0.017344
            0.015500	            4.270433	          411.722205	          -39.012273	           -0.287267	            0.006125	           -0.384756	            0.019487	            1.878766	           -0.178020	           -5.812823	          380.880890	           31.066838	           -0.253194	            0.005698	           -0.733824	           -0.003640	            0.238528	            0.019456
            0.016000	            4.453478	          412.263400	          -39.102121	           -0.287257	            0.006125	           -0.384728	            0.020800	            1.925485	           -0.182627	           -6.140087	          380.695398	           31.113248	           -0.252914	            0.005700	           -0.733925	           -0.004334	            0.268687	            0.021959
            0.016500	            4.683394	          411.541399	          -38.876499	           -0.287284	            0.006125	           -0.384884	            0.021921	            1.926231	           -0.181962	           -5.911154	          382.169431	           31.118405	           -0.253180	            0.005700	           -0.734161	           -0.004240	            0.274131	            0.022321
            0.017000	            4.224590	          411.722196	          -39.012159	           -0.287319	            0.006126	           -0.385075	            0.019252	            1.876300	           -0.177786	           -6.144821	          381.985053	           30.930135	           -0.252992	            0.005700	           -0.734065	           -0.004337	            0.269589	            0.021829
